HIERARCHY
ROOT Hips
{
	OFFSET 0.000000 0.000000 0.000000 
	CHANNELS 6 Xposition Yposition Zposition Zrotation Yrotation Xrotation
	JOINT LeftUpLeg
	{
		OFFSET 1.363060 -1.794630 0.839290 
		CHANNELS 3 Zrotation Yrotation Xrotation
		JOINT LeftLeg
		{
			OFFSET 2.448110 -6.726130 0.000000 
			CHANNELS 3 Zrotation Yrotation Xrotation
			JOINT LeftFoot
			{
				OFFSET 2.562200 -7.039590 0.000000 
				CHANNELS 3 Zrotation Yrotation Xrotation
				JOINT LeftToeBase
				{
					OFFSET 0.157640 -0.433110 2.322550 
					CHANNELS 3 Zrotation Yrotation Xrotation
					End Site
					{
						OFFSET 0.000000 0.000000 0.000000 
					}
				}
			}
		}
	}
	JOINT RightUpLeg
	{
		OFFSET -1.305520 -1.794630 0.839290 
		CHANNELS 3 Zrotation Yrotation Xrotation
		JOINT RightLeg
		{
			OFFSET -2.542530 -6.985550 0.000000 
			CHANNELS 3 Zrotation Yrotation Xrotation
			JOINT RightFoot
			{
				OFFSET -2.568260 -7.056230 0.000000 
				CHANNELS 3 Zrotation Yrotation Xrotation
				JOINT RightToeBase
				{
					OFFSET -0.164730 -0.452590 2.363150 
					CHANNELS 3 Zrotation Yrotation Xrotation
					End Site
					{
						OFFSET 0.000000 0.000000 0.000000 
					}
				}
			}
		}
	}
	JOINT Spine
	{
		OFFSET 0.028270 2.035590 -0.193380 
		CHANNELS 3 Zrotation Yrotation Xrotation
		JOINT Spine1
		{
			OFFSET 0.056720 2.048850 -0.042750 
			CHANNELS 3 Zrotation Yrotation Xrotation
			JOINT Neck1
			{
				OFFSET -0.054170 1.746240 0.172020 
				CHANNELS 3 Zrotation Yrotation Xrotation
				JOINT Head
				{
					OFFSET 0.104070 1.761360 -0.123970 
					CHANNELS 3 Zrotation Yrotation Xrotation
					End Site
					{
						OFFSET 0.000000 0.000000 0.000000 
					}
				}
			}
			JOINT LeftArm
			{
				OFFSET 3.362410 1.200890 -0.311210 
				CHANNELS 3 Zrotation Yrotation Xrotation
				JOINT LeftForeArm
				{
					OFFSET 4.983000 -0.000000 -0.000000 
					CHANNELS 3 Zrotation Yrotation Xrotation
					JOINT LeftHand
					{
						OFFSET 3.483560 -0.000000 -0.000000 
						CHANNELS 3 Zrotation Yrotation Xrotation
						JOINT LeftHandIndex1
						{
							OFFSET 0.715260 -0.000000 -0.000000 
							CHANNELS 3 Zrotation Yrotation Xrotation
							End Site
							{
								OFFSET 0.000000 0.000000 0.000000 
							}
						}
					}
				}
			}
			JOINT RightArm
			{
				OFFSET -3.136600 1.374050 -0.404650 
				CHANNELS 3 Zrotation Yrotation Xrotation
				JOINT RightForeArm
				{
					OFFSET -5.241900 -0.000000 -0.000000 
					CHANNELS 3 Zrotation Yrotation Xrotation
					JOINT RightHand
					{
						OFFSET -3.444170 -0.000000 -0.000000 
						CHANNELS 3 Zrotation Yrotation Xrotation
						JOINT RightHandIndex1
						{
							OFFSET -0.622530 -0.000000 -0.000000 
							CHANNELS 3 Zrotation Yrotation Xrotation
							End Site
							{
								OFFSET 0.000000 0.000000 0.000000 
							}
						}
					}
				}
			}
		}
	}
}
MOTION
Frames: 10
Frame Time: 0.041667
-33.377130 17.325309 1.201603 70.823711 85.446675 67.986109 -22.253652 -0.228432 -1.906260 0.598955 11.635487 28.426753 -2.471193 12.346332 -15.259474 0.018500 0.878600 2.414800 15.488556 -5.328756 -6.059066 -2.996219 -13.496508 35.963992 -0.862122 -1.519825 -19.137698 -0.037400 -1.248300 3.432300 0.304957 2.175478 -0.406307 5.438934 0.542773 7.967601 6.066067 2.834713 15.963741 2.436800 1.232600 14.925200 -75.277047 -0.680859 10.697638 4.673766 -18.046071 -1.831148 -0.803628 0.827777 25.557595 -7.125000 0.000000 0.000000 61.073823 -3.950713 22.492795 -13.911684 27.353853 -5.301234 1.043057 2.030570 -16.542796 7.125000 0.000000 0.000000 
-33.421682 17.345325 1.190411 56.850145 87.313674 54.326275 -19.856791 -0.816235 -2.654868 0.846863 11.904212 29.634432 -2.301475 11.822351 -15.784004 0.036900 1.239100 3.406900 17.712309 -6.336418 -7.282823 -2.940023 -13.633852 35.946068 -0.774721 -1.311984 -17.905433 -0.026000 -1.041200 2.862100 0.450345 1.907660 -0.558939 4.787103 0.537223 7.252044 5.908446 3.137984 15.787332 2.282000 1.392500 14.772100 -74.766687 -0.213644 13.889253 5.413255 -19.190931 -2.044462 -0.578503 0.557256 22.696100 -7.125000 0.000000 0.000000 61.233870 -4.685275 24.326341 -14.805976 28.362228 -5.651561 1.002639 2.023043 -16.910706 7.125000 0.000000 0.000000 
-33.468494 17.358561 1.178143 23.901208 88.218778 21.659187 -17.646100 -1.375763 -3.559316 1.104566 12.260791 30.903967 -2.141389 11.341349 -16.184023 0.045800 1.381600 3.799500 19.685396 -7.235093 -8.387625 -2.963828 -13.733532 36.132824 -0.741596 -0.809358 -16.617865 -0.009300 -0.624300 1.715400 0.564649 1.729533 -0.672232 4.099853 0.589045 6.721441 5.722468 3.418265 15.644655 2.122200 1.533500 14.674700 -74.352488 -0.008358 16.549615 6.111004 -20.197982 -2.265869 -0.330186 0.300892 20.841209 -7.125000 0.000000 0.000000 61.545406 -4.868409 25.210639 -15.291398 28.869714 -5.821270 1.000543 1.977552 -16.450520 7.125000 0.000000 0.000000 
-33.508848 17.372121 1.168781 -29.611966 87.143262 -31.575018 -15.543605 -1.765076 -4.528590 1.302933 12.602715 31.893853 -2.013921 10.909479 -16.313736 0.033100 1.174400 3.228800 21.444795 -8.185183 -9.487723 -3.064048 -13.818154 36.525713 -0.713138 -0.172584 -14.974312 -0.000200 -0.082900 0.227700 0.646685 1.720456 -0.754243 3.497464 0.818649 6.370226 5.602863 3.735803 15.522460 2.066400 1.665700 14.557900 -73.963866 0.110376 17.511097 6.639004 -20.912633 -2.482405 -0.045400 0.069391 20.759245 -7.125000 0.000000 0.000000 61.866453 -4.730190 25.383920 -15.478435 29.048968 -5.880463 0.997078 1.942342 -15.633819 7.125000 0.000000 0.000000 
-33.552647 17.397410 1.162432 -70.437357 84.365036 -71.398923 -11.491398 -1.910512 -6.043065 1.613143 12.575944 32.673861 -1.886037 10.160632 -15.134553 0.011800 0.700400 1.924700 25.149672 -8.896641 -11.993915 -3.068075 -14.244430 37.046114 -0.594225 -0.210497 -13.414302 -0.008800 0.604300 -1.660700 0.947945 1.172728 -0.934126 2.761005 0.658171 6.005058 5.486803 4.147056 15.420716 2.028200 1.834600 14.406700 -74.034670 0.761322 24.970726 7.805275 -22.560363 -2.723965 -0.234530 -0.345473 4.623925 -7.125000 0.000000 0.000000 62.063044 -4.721519 25.667486 -15.687388 29.281812 -5.968856 1.007367 1.924801 -14.905443 7.125000 0.000000 0.000000 
-33.578043 17.408924 1.149195 -65.977092 83.790252 -66.992180 -11.111809 -1.831115 -6.253393 1.708749 12.688853 33.080712 -1.964336 10.452911 -15.464376 0.007400 0.553900 1.522000 25.164460 -9.365082 -13.062513 -3.301408 -14.510438 38.027827 -0.598458 0.371486 -12.142242 -0.118100 2.215100 -6.100600 0.947947 1.251248 -0.984926 2.578324 0.736114 5.539892 5.346090 4.554495 15.291152 1.920400 2.017900 14.191700 -74.066850 0.681041 27.950407 8.288944 -23.130646 -2.773168 -0.591950 -0.412266 -2.918386 -7.125000 0.000000 0.000000 62.304281 -4.848101 25.946444 -15.939429 29.517578 -6.053067 1.021420 1.886153 -14.135096 7.125000 0.000000 0.000000 
-33.580518 17.422698 1.134345 -61.011654 83.431025 -62.148277 -11.098093 -1.743723 -6.159575 1.742352 12.747253 33.251103 -2.058450 10.808925 -15.813476 0.012300 0.715100 1.965300 24.736882 -9.890860 -13.925956 -3.572451 -14.768883 39.095636 -0.687092 1.350478 -11.437122 -0.548700 4.745600 -13.184300 0.906487 1.417235 -0.990230 2.314641 0.851543 5.331246 5.151918 4.785044 15.167547 1.760500 2.128400 13.997200 -73.946886 0.147341 27.722144 8.159112 -22.894969 -2.717724 -0.599916 -0.381431 -2.898468 -7.125000 0.000000 0.000000 62.574843 -4.965128 26.043950 -16.132909 29.710104 -6.111407 0.996990 1.849044 -13.725384 7.125000 0.000000 0.000000 
-33.576644 17.433029 1.127565 -58.034720 83.074466 -59.285519 -11.007884 -1.653241 -5.869506 1.711263 12.691168 33.086212 -2.090408 10.927464 -15.926545 0.036400 1.231700 3.386600 24.300701 -10.155129 -14.592926 -3.859888 -15.044587 40.223194 -0.810485 2.573386 -10.915037 -0.919300 6.108800 -17.100400 0.890942 1.519985 -0.991644 2.132861 0.920558 5.237170 4.997675 4.983079 15.166130 1.666600 2.202400 14.025100 -73.902772 -0.243180 27.421413 8.204334 -22.892920 -2.733654 -0.595642 -0.363564 -2.579990 -7.125000 0.000000 0.000000 62.670818 -5.020668 26.246418 -16.347350 29.920557 -6.187059 0.955592 1.836900 -13.782030 7.125000 0.000000 0.000000 
-33.577397 17.432599 1.129825 -56.410900 82.833826 -57.783143 -10.914596 -1.584466 -5.633845 1.681736 12.635776 32.942839 -2.039345 10.843798 -16.263537 0.030400 1.126000 3.095500 23.803988 -10.089486 -14.810105 -4.064232 -15.217337 40.988185 -0.925757 3.776011 -10.440691 -0.769400 5.600900 -15.630700 0.899340 1.527946 -1.031194 2.105380 0.927956 5.006228 4.976085 5.242654 15.262761 1.716700 2.282400 14.186700 -73.993134 -0.456657 27.019444 8.311411 -22.974220 -2.774357 -0.599342 -0.350331 -2.089959 -7.125000 0.000000 0.000000 62.638576 -5.113117 26.402002 -16.512588 30.069770 -6.252176 0.923537 1.840762 -13.936359 7.125000 0.000000 0.000000 
-33.572770 17.424528 1.137896 -54.950426 82.796834 -56.466816 -10.996463 -1.558195 -5.427406 1.656389 12.607664 32.852421 -2.032526 10.905129 -16.625583 0.004400 0.430600 1.183200 23.095628 -9.819142 -14.505565 -4.155964 -15.250291 41.272416 -1.016942 4.599092 -10.399547 -0.433000 4.222500 -11.703500 0.895145 1.521406 -1.060497 2.133526 0.924395 4.854635 5.023999 5.450986 15.386122 1.796000 2.356500 14.307600 -74.217840 -0.231308 30.528425 9.016910 -23.865643 -2.932120 -1.017841 -0.357661 -11.227771 -7.125000 0.000000 0.000000 62.725914 -5.158378 26.242363 -16.489945 30.036012 -6.244819 0.918394 1.842057 -13.919686 7.125000 0.000000 0.000000 
